<svg width="415" height="231" viewBox="0 0 415 231" fill="none" xmlns="http://www.w3.org/2000/svg">
<g filter="url(#filter0_d_143_213)">
<path d="M225.564 55.3358C225.516 55.2878 225.444 55.2398 225.372 55.1918C225.3 55.1438 225.228 55.0958 225.18 55.0478C225.099 54.8862 225.222 54.6566 225.321 54.4734L225.346 54.427C225.355 54.4093 225.364 54.3922 225.372 54.3758C228.348 49.9598 231.036 45.3518 232.092 40.3598C233.436 33.9278 231.612 26.6318 225.756 22.5998C220.599 18.9643 214.399 18.6795 208.337 18.401C207.516 18.3632 206.697 18.3256 205.884 18.2798C197.724 17.7038 189.564 17.9918 181.5 19.3358C185.34 46.0238 188.316 70.8878 188.892 104.008C188.892 104.776 210.396 103.528 212.892 103.336C220.764 102.856 229.02 101.8 235.74 98.1518C243.228 94.0238 248.22 86.5358 248.124 78.8558C248.028 74.4398 246.396 70.8878 243.804 67.8158C239.393 62.6538 232.412 58.9598 226.002 55.5679L225.564 55.3358ZM217.116 39.8798C217.308 35.7518 212.796 31.6238 204.924 29.3198C204.348 35.1758 204.636 41.7038 206.268 47.4638C213.276 46.5038 216.828 43.0478 217.116 39.8798ZM107.897 22.6957C99.9767 22.7437 92.0567 22.7917 84.1847 22.7917C82.7447 48.7117 83.5127 73.7677 85.8167 99.6877C93.1127 99.4957 100.121 97.8637 107.225 96.0397C106.971 90.7576 106.717 85.2336 106.463 79.7095L106.462 79.6987C106.236 74.7851 106.011 69.8712 105.785 65.1277C113.753 64.8397 120.089 64.3597 128.057 63.6877C127.673 56.9677 127.577 50.3437 127.673 43.6237L127.289 43.2397C119.705 43.8157 112.025 44.1037 104.441 43.7197C104.441 41.1277 104.057 38.6317 103.481 36.1357C112.505 35.9437 122.969 34.7917 131.993 33.7357C132.185 30.1837 131.897 26.1517 131.609 22.5997C123.737 22.5997 115.817 22.6477 107.897 22.6957ZM172.312 30.6637C172.6 42.5677 176.728 73.9597 182.008 87.2077C182.392 88.2637 174.328 90.2797 173.272 90.4717C169.912 90.9517 166.36 91.3357 163 91.6237C162.808 90.6637 162.04 80.5837 162.04 80.5837C162.04 80.5837 152.44 80.2957 146.2 80.7757C146.013 84.14 145.917 87.5953 145.824 90.9644L145.816 91.2397C145.72 91.6237 127.768 88.9357 126.328 88.5517C131.896 71.8477 136.984 45.2557 137.656 31.7197C149.176 32.2957 172.312 30.6637 172.312 30.6637ZM82.1733 114.528C82.4613 103.68 95.8053 98.1117 102.429 107.904C104.829 111.456 105.117 116.256 103.101 120C101.085 123.744 96.8613 126.24 92.6373 126.144C88.1253 126.144 83.7093 123.072 82.5573 118.752C82.1733 117.312 82.0773 115.968 82.1733 114.528ZM306.626 73.0957C310.994 73.2397 315.098 73.4077 319.202 73.5757C323.306 73.7437 327.41 73.9117 331.778 74.0557C331.01 79.3357 330.722 84.7117 330.722 90.0877C317.187 90.6637 303.652 91.1436 290.117 91.6236L290.114 91.5277C290.114 71.5597 288.482 51.4957 285.506 31.6237C300.194 32.1037 314.978 31.7197 329.666 30.6637C329.77 32.5639 329.848 33.457 329.902 34.0679C329.998 35.1532 330.015 35.3492 329.954 38.7277C321.89 38.2477 313.73 38.3437 305.666 38.5357C305.841 40.7496 305.945 43.8473 306.042 46.7562C306.106 48.6376 306.167 50.4476 306.242 51.8797C311.042 51.8797 315.842 51.9757 320.642 52.3597C320.69 53.3187 320.738 55.6667 320.786 58.0161C320.834 60.3681 320.882 62.7277 320.93 63.6877C315.938 63.8797 311.042 63.9757 306.05 63.8797C305.684 66.5331 306.19 70.0588 306.571 72.7109L306.626 73.0957ZM262.628 93.2767C270.074 92.7628 278.069 92.211 286.145 92.5837C286.145 91.3222 286.179 90.4969 286.208 89.7982C286.264 88.4771 286.3 87.6071 286.049 85.0957C282.689 85.8637 278.753 85.9597 275.297 85.6717C276.065 66.0877 276.449 49.3837 276.641 29.7037C275.65 29.6426 274.612 29.5736 273.536 29.5023C266.17 29.0135 257.085 28.4106 250.049 29.4157C250.337 29.3197 252.545 63.3997 251.009 93.9277C254.667 93.8261 258.567 93.557 262.628 93.2767ZM83.7093 132.576C85.6773 132.576 87.6213 132.6 89.5653 132.624C91.5093 132.648 93.4533 132.672 95.4213 132.672C96.6859 132.714 97.9876 132.886 99.2857 133.057C100.944 133.276 102.596 133.494 104.157 133.44C101.469 152.064 101.373 171.264 103.197 189.984C103.197 190.272 83.9013 190.272 82.3653 190.272C83.8053 171.072 85.0533 151.68 82.7493 132.576H83.7093ZM148.714 118.944C148.234 130.08 147.562 144.864 146.794 157.632C143.818 151.008 141.034 144.192 138.634 137.184C138.058 135.552 132.298 116.832 132.682 116.736C132.247 116.844 131.816 116.953 131.387 117.061C128.402 117.812 125.527 118.536 122.506 119.04C120.25 119.424 118.019 119.808 115.787 120.191C113.555 120.576 111.322 120.96 109.066 121.344C108.778 121.344 108.49 121.44 108.298 121.728C108.106 121.92 108.106 122.304 108.202 122.592C108.33 129.504 108.628 136.416 108.927 143.328C109.076 146.784 109.226 150.24 109.354 153.696C109.93 165.984 110.506 178.272 111.274 190.56C111.274 190.944 111.466 194.592 111.466 194.592C118.762 195.264 126.154 195.744 133.45 195.456C133.834 195.456 134.314 195.36 134.506 195.072C134.794 194.784 134.89 194.208 134.89 193.824C135.078 190.406 135.276 186.977 135.475 183.545C135.884 176.471 136.295 169.382 136.618 162.336C137.975 170.902 140.381 179.168 142.777 187.4C143.093 188.486 143.409 189.571 143.722 190.656C143.818 190.944 143.914 191.232 144.106 191.328C144.298 191.52 144.586 191.52 144.778 191.52C148.618 191.328 154.474 191.136 158.218 191.04C158.41 190.944 158.41 190.08 158.41 189.984C158.769 186.963 158.806 183.888 158.842 180.84L158.842 180.828C158.854 179.812 158.866 178.799 158.89 177.792C158.938 174.351 159.011 170.934 159.084 167.529L159.084 167.518L159.084 167.508C159.155 164.176 159.226 160.856 159.274 157.536C159.303 153.577 159.296 149.618 159.29 145.662C159.274 136.764 159.259 127.878 159.658 119.04V118.656C159.562 118.56 159.37 118.56 159.274 118.56C155.818 118.752 152.266 118.848 148.714 118.944ZM166.701 139.008C167.181 135.168 167.757 131.232 169.965 128.064C173.613 122.88 179.565 121.344 185.325 120.096C194.061 118.272 202.989 117.504 211.917 116.832C211.533 116.832 211.917 130.752 212.013 132.48C212.013 132.768 212.013 133.056 211.821 133.248C211.629 133.44 211.341 133.44 211.149 133.44C207.117 133.883 203.068 134.191 199.024 134.499C193.439 134.924 187.861 135.348 182.349 136.128C182.445 138.72 182.637 141.312 182.829 143.904C183.021 146.496 183.213 149.088 183.309 151.68L183.376 152.985C183.834 161.854 184.287 170.643 184.653 179.52C189.933 180.384 195.309 180.48 200.589 179.808V173.664C196.941 173.376 193.389 173.088 189.741 172.608C188.615 172.397 189.812 163.562 190.53 158.261C190.791 156.334 190.989 154.873 190.989 154.464C191.085 153.696 215.277 155.904 218.061 156.864C217.605 161.841 217.489 166.925 217.373 172.016C217.221 178.71 217.068 185.415 216.141 191.904C216.121 191.985 216.101 192.067 216.083 192.148L216.06 192.247C215.91 192.895 215.767 193.511 215.277 193.92C214.701 194.496 213.741 194.592 212.877 194.592C201.069 194.88 189.933 194.208 178.221 192.288C173.229 191.232 167.565 189.312 165.837 184.512C165.252 183.091 165.176 181.598 165.103 180.159C165.092 179.945 165.082 179.731 165.069 179.52C164.589 165.984 165.165 152.448 166.701 139.008ZM56.3987 157.511C54.8966 157.269 53.3945 157.027 51.8924 156.672C58.6124 154.272 65.0444 150.72 70.7084 146.304C72.2444 145.152 73.6844 144 74.8364 142.56C80.4044 135.744 80.1164 125.952 79.6364 117.792C71.4764 116.832 63.4124 116.064 55.2524 115.584C55.2524 120.192 54.8684 124.8 54.0044 129.312C52.3724 137.28 49.2044 142.656 40.4684 142.368C39.8924 135.456 39.6044 128.544 39.7964 121.632C38.809 121.632 37.838 121.626 36.8783 121.621C32.1462 121.594 27.6892 121.569 22.9004 122.208C23.7644 145.344 23.8604 168.384 22.9964 191.52C23.6045 191.473 25.2155 191.426 27.3047 191.366C33.7905 191.177 44.8844 190.855 44.8844 189.984L45.4604 169.536C48.0524 168 51.5084 169.248 53.4284 171.648C55.2524 173.952 55.8284 177.024 56.1164 179.904C56.6924 185.472 56.5964 191.136 56.5004 196.704C63.2204 196.32 70.0364 195.648 76.7564 194.592C76.7564 186.528 76.7564 178.368 74.5484 170.592C73.6844 167.52 72.4364 164.448 70.1324 162.432C68.0204 160.608 65.4284 159.648 62.8364 158.88C60.6905 158.202 58.5446 157.857 56.3987 157.511ZM244.207 124.032C251.407 127.584 257.743 133.536 261.487 141.408C267.247 153.6 265.903 169.824 258.223 180.384C250.543 191.04 237.391 195.456 226.063 191.04C222.607 167.424 221.359 143.52 221.359 119.616C229.039 119.232 237.103 120.48 244.207 124.032ZM308.704 137.952C308.512 135.744 308.224 133.632 307.744 131.616C307.674 131.288 307.609 130.887 307.54 130.452C307.323 129.101 307.053 127.422 306.4 126.624C305.536 125.376 303.808 125.376 302.272 125.472C295.552 125.952 288.832 126.912 282.304 128.448C281.639 128.609 280.994 128.754 280.371 128.894C275.423 130.01 271.871 130.81 270.592 136.608C267.424 150.624 267.808 165.216 268.192 179.616C268.192 180.576 268.288 181.44 268.768 182.208C269.344 183.168 270.592 183.552 271.744 183.84C282.784 186.72 294.4 187.584 305.728 186.24L305.82 186.227C307.237 186.039 308.816 185.829 309.568 184.608C310.144 183.84 310.24 182.784 310.24 181.728C310.624 172.032 310.528 162.24 309.952 152.544C309.664 147.648 309.28 142.752 308.704 137.952ZM237.247 155.265C237.199 150.686 237.151 146.107 237.103 141.504C237.123 143.424 237.143 145.339 237.163 147.253C237.188 149.599 237.212 151.942 237.237 154.284L237.237 154.319L237.238 154.359L237.24 154.534L237.247 155.265ZM372.045 158.208C371.718 159.859 371.396 161.51 371.073 163.16C369.783 169.766 368.493 176.371 366.957 182.976C366.189 186.24 365.421 189.6 364.652 192.96C359.181 193.056 353.709 193.152 348.237 193.344C346.797 187.872 341.517 170.976 337.484 163.872C336.428 175.392 334.701 187.104 332.589 198.528C326.06 197.568 319.436 196.992 312.812 196.608C316.077 172.512 319.245 142.176 321.069 115.872C330.573 114.912 339.98 114.816 349.581 115.2C351.212 130.944 353.421 146.976 356.109 162.528C357.342 155.803 358.543 149.078 359.744 142.346L359.747 142.33C361.444 132.827 363.143 123.31 364.941 113.76C370.952 113.922 376.757 114.566 382.705 115.225C383.785 115.345 384.873 115.466 385.965 115.584C386.061 124.128 388.556 166.656 392.108 194.592C389.708 194.832 387.309 195.096 384.909 195.36C382.509 195.624 380.109 195.888 377.709 196.128C377.325 196.224 376.844 196.224 376.556 196.032C376.337 195.813 376.285 195.538 376.23 195.249C376.213 195.159 376.195 195.067 376.173 194.976C374.924 182.784 373.581 170.592 372.237 158.4L372.045 158.208Z" fill="url(#paint0_linear_143_213)"/>
</g>
<g filter="url(#filter1_di_143_213)">
<path d="M178.54 1.58032C188.054 -0.00538758 197.556 -0.332553 206.896 0.308838C207.347 0.334258 207.913 0.350733 208.579 0.370361C214.015 0.530638 226.064 0.886243 235.962 7.77466C235.987 7.79175 236.012 7.80905 236.037 7.82642L236.077 7.85474C236.085 7.86022 236.093 7.86603 236.101 7.87134C236.109 7.87693 236.118 7.88214 236.126 7.88794C238.439 9.49972 240.433 11.3042 242.135 13.2463C242.846 12.8992 243.587 12.5956 244.356 12.3391C246.143 11.7436 247.825 11.4419 249.396 11.3596C258.123 10.4021 268.374 11.1014 274.984 11.554L277.75 11.7375L278.196 11.7708C280.551 11.974 282.769 12.6262 284.769 13.6389C285.043 13.6277 285.318 13.6229 285.594 13.6243L286.094 13.6331L288.718 13.7092C301.849 14.0422 315.116 13.6635 328.375 12.7102C333.19 12.364 337.943 13.9669 341.565 17.1584C345.188 20.35 347.376 24.8633 347.639 29.6838C347.73 31.3496 347.768 31.7524 347.811 32.2073C347.837 32.493 347.866 32.8029 347.911 33.4573C348.023 35.0851 347.995 36.6407 347.953 38.97L347.951 39.0549C347.862 43.9568 345.776 48.6101 342.178 51.9397C341.118 52.9203 339.953 53.7596 338.713 54.4504C338.736 55.4442 338.758 56.5086 338.777 57.4719C341.386 58.5729 343.726 60.2862 345.583 62.5051C348.87 66.4339 350.328 71.5775 349.591 76.6467C348.978 80.8568 348.722 85.335 348.722 90.0881L348.716 90.5383C348.659 92.8621 348.16 95.0804 347.3 97.1096C347.663 97.1205 348.027 97.1316 348.39 97.1438L350.301 97.2141C352.204 97.2903 354.034 97.6629 355.745 98.2864C358.476 96.6615 361.657 95.7454 365.015 95.76L365.428 95.7659C371.453 95.9287 377.341 96.5248 382.714 97.1155L387.9 97.6877C396.962 98.6676 403.861 106.267 403.964 115.381C404.049 122.94 406.344 162.439 409.644 189.721L409.966 192.322L410.018 192.774C410.492 197.443 409.123 202.121 406.192 205.802C403.167 209.602 398.734 212.019 393.9 212.502C391.642 212.728 389.368 212.979 386.997 213.24L386.877 213.252C384.695 213.492 382.427 213.739 380.141 213.971C378.866 214.16 377.489 214.242 376.04 214.156C374.111 214.043 370.57 213.552 366.926 211.239L366.572 211.009C366.544 210.99 366.515 210.971 366.487 210.951L366.448 210.925L366.433 210.914L366.378 210.876C365.913 210.921 365.443 210.949 364.969 210.957L364.929 210.958C359.447 211.054 354.141 211.147 348.868 211.332C347.705 211.373 346.56 211.301 345.444 211.126C341.645 214.997 336.16 217.097 330.419 216.397L329.971 216.336C324.133 215.478 318.068 214.942 311.771 214.577C306.766 214.287 302.109 211.923 298.921 208.053C298.098 207.054 297.392 205.979 296.81 204.847C286.803 204.996 276.806 203.763 267.199 201.257C266.597 201.105 265.409 200.794 264.005 200.256C253.121 209.101 238.654 213.048 224.521 209.42C222.107 210.931 219.793 211.654 218.196 212.019C216.153 212.486 214.366 212.57 213.315 212.585C201.29 212.879 189.76 212.256 177.724 210.432L175.31 210.051C175.173 210.029 175.037 210.004 174.901 209.979L174.496 209.898C172.244 209.421 169.141 208.665 165.864 207.335C163.614 208.391 161.167 208.97 158.679 209.033C155 209.128 149.307 209.316 145.676 209.497C145.602 209.501 145.529 209.504 145.455 209.506L145.392 209.508H145.372L145.308 209.51C142.96 211.302 140.684 212.156 139.418 212.552C137.307 213.212 135.397 213.413 133.944 213.448C126.596 213.726 119.375 213.333 112.679 212.769L109.814 212.516C105.925 212.158 102.408 210.576 99.6416 208.164C97.0134 205.873 95.0622 202.832 94.1113 199.379C93.1502 202.866 91.1631 205.951 88.4688 208.262C86.0061 210.374 82.9521 211.839 79.5508 212.373C72.1541 213.536 64.7394 214.262 57.5273 214.674C52.5296 214.96 47.6389 213.151 44.0293 209.683C43.6825 209.35 43.3509 209.003 43.0342 208.646C40.7526 208.853 38.0664 208.994 35.6299 209.096C32.9186 209.209 30.1505 209.29 27.9922 209.353C26.8889 209.385 25.9764 209.412 25.2588 209.436C24.7815 209.452 24.5167 209.463 24.4014 209.468C24.3525 209.47 24.3301 209.471 24.3301 209.471L24.3545 209.469L24.377 209.467C24.3753 209.467 24.3737 209.467 24.3721 209.467L24.3535 209.469L24.3291 209.471C24.3145 209.472 24.2998 209.472 24.2852 209.473C24.0623 209.489 23.8396 209.501 23.6172 209.509C23.6084 209.509 23.5996 209.51 23.5908 209.51C23.3568 209.518 23.123 209.521 22.8896 209.52L22.8887 209.519C22.8541 209.519 22.8187 209.519 22.7842 209.519L22.7158 209.518C21.787 209.503 20.8649 209.417 19.958 209.262C19.7794 209.231 19.6013 209.198 19.4238 209.162C19.2463 209.126 19.0688 209.087 18.8926 209.046C18.7161 209.005 18.5403 208.961 18.3652 208.914C18.1904 208.868 18.016 208.819 17.8428 208.767C17.1498 208.56 16.4698 208.311 15.8066 208.022H15.8076C13.8715 207.178 12.0781 205.992 10.5225 204.496C6.82367 200.941 4.81829 195.975 5.00977 190.848C5.85523 168.208 5.76228 145.619 4.91309 122.879C4.56709 113.608 11.325 105.592 20.5215 104.365C25.9854 103.637 31.2611 103.588 35.6836 103.61L39.7969 103.632C40.4373 103.632 41.0742 103.666 41.7051 103.734C42.0832 103.301 42.4828 102.885 42.9043 102.488C46.5111 99.0867 51.3608 97.3235 56.3096 97.6145C60.1145 97.8383 63.8868 98.1217 67.6406 98.4534C65.467 72.8337 64.7682 47.7806 66.2119 21.7932L66.2422 21.3479C66.9888 12.0237 74.7798 4.79149 84.1836 4.79126C91.9919 4.79126 99.8578 4.74459 107.787 4.69653L107.983 4.69556C115.829 4.648 123.739 4.59985 131.608 4.59985C138.318 4.59999 144.223 8.28535 147.317 13.8059C150.864 13.7414 154.748 13.6 158.468 13.427C160.699 13.3232 162.791 13.2127 164.607 13.1096C166.776 7.24112 171.946 2.6795 178.54 1.58032ZM214.64 194.33L214.615 194.34L214.641 194.33H214.64ZM214.719 194.295C214.716 194.296 214.714 194.297 214.712 194.298L214.699 194.305L214.686 194.312H214.687L214.7 194.305L214.719 194.295ZM214.743 194.285L214.766 194.274C214.772 194.27 214.779 194.266 214.785 194.263C214.771 194.27 214.758 194.279 214.743 194.285ZM214.844 194.234C214.838 194.237 214.833 194.24 214.827 194.242C214.824 194.244 214.821 194.246 214.817 194.247C214.826 194.243 214.835 194.238 214.844 194.234ZM215.085 194.082L215.068 194.097C215.078 194.09 215.088 194.082 215.098 194.074C215.094 194.077 215.089 194.079 215.085 194.082ZM215.116 194.06C215.112 194.063 215.108 194.065 215.104 194.069C215.101 194.07 215.1 194.073 215.098 194.074C215.107 194.067 215.116 194.059 215.125 194.052C215.122 194.054 215.119 194.057 215.116 194.06ZM215.167 194.019C215.166 194.02 215.164 194.021 215.163 194.022C215.156 194.028 215.148 194.033 215.141 194.038C215.135 194.043 215.13 194.048 215.125 194.052C215.138 194.042 215.152 194.032 215.165 194.022C215.167 194.02 215.17 194.017 215.172 194.015C215.17 194.016 215.169 194.017 215.167 194.019ZM215.147 194.033C215.149 194.032 215.151 194.032 215.152 194.031C215.154 194.029 215.156 194.028 215.157 194.027C215.154 194.029 215.151 194.031 215.147 194.033ZM215.259 193.936C215.249 193.945 215.239 193.955 215.229 193.964C215.245 193.949 215.262 193.936 215.277 193.92C215.272 193.926 215.265 193.93 215.259 193.936ZM93.2324 190.236L93.2314 190.237L93.2324 190.236ZM93.4209 190.235H93.3682V190.236C93.4162 190.235 93.4666 190.234 93.5146 190.234L93.4209 190.235ZM165.051 178.98C165.048 178.905 165.046 178.831 165.044 178.756L165.045 178.777L165.047 178.833L165.051 178.98ZM165.043 178.718L165.042 178.667C165.041 178.629 165.039 178.59 165.038 178.552C165.036 178.498 165.036 178.445 165.034 178.391L165.031 178.304L165.028 178.22L165.026 178.152L165.023 178.081L165.022 178.05L165.021 178.02L165.02 177.982V178.007L165.021 178.02L165.021 178.05L165.022 178.081L165.028 178.22L165.03 178.304C165.035 178.442 165.039 178.58 165.043 178.718ZM291.842 151.381V151.383V151.381ZM74.1357 143.367C74.1224 143.382 74.1072 143.394 74.0938 143.408C74.0692 143.434 74.0452 143.461 74.0205 143.487C74.0588 143.447 74.0979 143.408 74.1357 143.367ZM74.4072 143.066C74.3976 143.077 74.3896 143.089 74.3799 143.1C74.4135 143.062 74.4453 143.023 74.4785 142.985C74.4548 143.012 74.4311 143.039 74.4072 143.066ZM74.5674 142.883C74.5486 142.905 74.5296 142.927 74.5107 142.948C74.5002 142.961 74.4891 142.972 74.4785 142.985C74.5114 142.947 74.5446 142.909 74.5771 142.871C74.5739 142.875 74.5707 142.879 74.5674 142.883ZM74.708 142.713L74.6162 142.826C74.6137 142.829 74.6099 142.831 74.6074 142.834C74.5971 142.846 74.5875 142.859 74.5771 142.871C74.5901 142.856 74.6043 142.842 74.6172 142.826L74.8369 142.56C74.7952 142.612 74.7505 142.662 74.708 142.713ZM91.9082 126.115C92.0511 126.126 92.1945 126.136 92.3379 126.14C92.1936 126.136 92.0496 126.126 91.9062 126.115H91.9082ZM91.8545 126.112C91.8457 126.111 91.8369 126.111 91.8281 126.111C91.804 126.109 91.78 126.106 91.7559 126.104C91.7409 126.102 91.7259 126.1 91.7109 126.099C91.693 126.097 91.6752 126.095 91.6572 126.093C91.723 126.099 91.7886 126.106 91.8545 126.112ZM91.1982 126.039C91.2652 126.049 91.3323 126.057 91.3994 126.066C91.3864 126.064 91.3734 126.062 91.3604 126.061C91.3183 126.055 91.2763 126.05 91.2344 126.044C91.2223 126.043 91.2103 126.041 91.1982 126.039ZM90.7471 125.965C90.7686 125.969 90.79 125.974 90.8115 125.978C90.79 125.974 90.7686 125.969 90.7471 125.965ZM97.8477 125.763L95.6104 125.792V125.791C95.6084 125.792 95.6065 125.793 95.6045 125.793L97.8467 125.764L97.8477 125.763ZM96.3193 125.582C96.1323 125.644 95.9441 125.701 95.7549 125.752C95.9444 125.701 96.1324 125.643 96.3193 125.582ZM97.1025 125.296C97.0454 125.319 96.9881 125.342 96.9307 125.365C96.9881 125.342 97.0454 125.319 97.1025 125.296ZM214.023 103.263L214.017 103.264H214.002V103.265L213.81 103.278L213.803 103.279L214.018 103.264L214.027 103.263C214.026 103.263 214.025 103.263 214.023 103.263ZM214.077 103.258L214.049 103.261H214.05L214.081 103.258C214.08 103.258 214.078 103.258 214.077 103.258ZM213.229 89.4885C212.639 89.6062 212.045 89.71 211.451 89.8C212.243 89.6801 213.035 89.536 213.816 89.3665L213.229 89.4885ZM222.146 85.8381C221.728 86.1844 221.274 86.5118 220.784 86.8157C220.621 86.917 220.453 87.0155 220.282 87.1116C219.97 87.2795 219.648 87.4399 219.316 87.593C219.151 87.6696 218.983 87.7447 218.812 87.8176C218.472 87.9636 218.123 88.102 217.767 88.2336C217.588 88.2995 217.408 88.3636 217.227 88.426C216.863 88.5508 216.493 88.6685 216.118 88.7795H216.119C216.307 88.724 216.493 88.6676 216.678 88.6086C217.786 88.2551 218.841 87.8394 219.808 87.3577C219.968 87.2775 220.127 87.1954 220.283 87.1116C220.967 86.7276 221.589 86.2997 222.146 85.8381ZM225.397 80.5784C225.349 80.8707 225.282 81.1621 225.195 81.4514C225.109 81.7403 225.004 82.0272 224.881 82.3108C224.573 83.0206 224.15 83.7099 223.62 84.3606C223.408 84.6208 223.179 84.8747 222.934 85.1213L223.29 84.7463C223.748 84.2387 224.138 83.704 224.457 83.1516C224.537 83.0137 224.612 82.8746 224.683 82.7346C224.966 82.174 225.177 81.5979 225.312 81.0159C225.345 80.8704 225.374 80.7245 225.398 80.5784H225.397ZM225.354 78.1711C225.459 78.6759 225.502 79.1878 225.485 79.7004V79.261C225.47 78.8225 225.41 78.386 225.305 77.9553L225.354 78.1711ZM223.623 74.8967C224.084 75.3992 224.457 75.9297 224.744 76.4788C224.421 75.8612 223.99 75.2673 223.446 74.7102L223.623 74.8967ZM223.066 74.344H223.067H223.066ZM220.647 72.6106C220.907 72.7564 221.16 72.9063 221.404 73.0627C221.16 72.9063 220.907 72.7564 220.647 72.6106ZM217.678 71.2542C218.356 71.5094 219.01 71.7858 219.631 72.0842C218.871 71.7191 218.063 71.388 217.22 71.0862L217.678 71.2542ZM212.86 69.7942C213.526 69.9615 214.188 70.1371 214.839 70.3245C215.49 70.5119 216.131 70.711 216.755 70.9241L215.808 70.6145C214.53 70.2155 213.197 69.8678 211.859 69.5491L212.86 69.7942ZM251.116 47.4446H251.117H251.116ZM249.391 47.4895C249.577 47.4942 249.765 47.495 249.955 47.4934C249.575 47.4966 249.202 47.4876 248.836 47.4661L249.391 47.4895ZM243.357 46.1243C245.092 46.82 246.946 47.2532 248.862 47.3782L248.36 47.3381C246.622 47.1755 244.94 46.7592 243.357 46.1243ZM247.211 47.2883C247.386 47.3164 247.563 47.3419 247.742 47.3645C247.563 47.3419 247.386 47.3164 247.211 47.2883ZM241.322 45.1584C241.813 45.4306 242.317 45.6788 242.832 45.9045C242.317 45.6787 241.813 45.4306 241.322 45.1584ZM273.57 29.5042H273.572C273.561 29.5034 273.549 29.503 273.538 29.5022C273.549 29.5029 273.56 29.5034 273.57 29.5042ZM270.302 21.9856C268.923 24.1616 268.031 26.6008 267.678 29.136L267.679 29.137C268.032 26.6013 268.924 24.1619 270.304 21.9856H270.302ZM214.727 194.293L214.731 194.29C214.729 194.291 214.727 194.292 214.725 194.293H214.727ZM165.055 179.087C165.059 179.231 165.064 179.376 165.069 179.52C165.063 179.34 165.057 179.16 165.051 178.98L165.055 179.087ZM90.9072 125.992C90.9001 125.991 90.8929 125.991 90.8857 125.99C90.8611 125.985 90.8362 125.982 90.8115 125.978C90.8433 125.984 90.8754 125.987 90.9072 125.992ZM90.7354 125.963C90.7311 125.962 90.7269 125.961 90.7227 125.96C90.7308 125.962 90.7389 125.964 90.7471 125.965C90.7432 125.964 90.7392 125.964 90.7354 125.963Z" fill="url(#paint1_linear_143_213)"/>
</g>
<g filter="url(#filter2_di_143_213)">
<path d="M84.684 22.7917C100.428 22.7917 116.364 22.5997 132.108 22.5997C132.396 26.1517 132.684 30.1837 132.492 33.7357C123.468 34.7917 113.004 35.9437 103.98 36.1357C104.556 38.6317 104.94 41.1277 104.94 43.7197C112.524 44.1037 120.204 43.8157 127.788 43.2397L128.172 43.6237C128.076 50.3437 128.172 56.9677 128.556 63.6877C120.588 64.3597 114.252 64.8397 106.284 65.1277C106.764 75.2077 107.244 86.0557 107.724 96.0397C100.62 97.8637 93.612 99.4957 86.316 99.6877C84.012 73.7677 83.244 48.7117 84.684 22.7917ZM153.228 46.4077C150.636 56.1037 149.196 67.1437 148.716 72.3277C152.364 72.0397 156.108 71.8477 159.852 72.0397C158.7 63.2077 158.124 54.3757 157.548 45.4477C156.012 45.6397 154.668 46.2157 153.228 46.4077ZM172.812 30.6637C173.1 42.5677 177.228 73.9597 182.508 87.2077C182.892 88.2637 174.828 90.2797 173.772 90.4717C170.412 90.9517 166.86 91.3357 163.5 91.6237C163.308 90.6637 162.54 80.5837 162.54 80.5837C162.54 80.5837 152.94 80.2957 146.7 80.7757C146.508 84.2317 146.412 87.7837 146.316 91.2397C146.22 91.6237 128.268 88.9357 126.828 88.5517C132.396 71.8477 137.484 45.2557 138.156 31.7197C149.676 32.2957 172.812 30.6637 172.812 30.6637ZM211.952 89.7997C215.12 89.3197 218.288 88.4557 220.784 87.1117C226.256 84.0397 227.792 78.1837 223.568 74.3437C220.4 71.3677 214.64 70.0237 209.36 68.8717C208.784 75.8797 209.552 83.0797 211.952 89.7997ZM217.616 39.8797C217.808 35.7517 213.296 31.6237 205.424 29.3197C204.848 35.1757 205.136 41.7037 206.768 47.4637C213.776 46.5037 217.328 43.0477 217.616 39.8797ZM226.064 55.3357C232.592 58.7917 239.792 62.5357 244.304 67.8157C246.896 70.8877 248.528 74.4397 248.624 78.8557C248.72 86.5357 243.728 94.0237 236.24 98.1517C229.52 101.8 221.264 102.856 213.392 103.336C210.896 103.528 189.392 104.776 189.392 104.008C188.816 70.8877 185.84 46.0237 182 19.3357C190.064 17.9917 198.224 17.7037 206.384 18.2797C213.2 18.6637 220.4 18.4717 226.256 22.5997C232.112 26.6317 233.936 33.9277 232.592 40.3597C231.536 45.3517 228.848 49.9597 225.872 54.3757C225.776 54.5677 225.584 54.8557 225.68 55.0477C225.776 55.1437 225.968 55.2397 226.064 55.3357ZM286.645 92.5837C274.165 92.0077 261.877 93.6397 251.509 93.9277C253.045 63.3997 250.837 29.3197 250.549 29.4157C258.613 28.2637 269.365 29.2237 277.141 29.7037C276.949 49.3837 276.565 66.0877 275.797 85.6717C279.253 85.9597 283.189 85.8637 286.549 85.0957C286.933 88.9357 286.645 88.9357 286.645 92.5837ZM306.55 63.8797C306.166 66.6637 306.742 70.4077 307.126 73.0957C315.862 73.3837 323.542 73.7677 332.278 74.0557C331.51 79.3357 331.222 84.7117 331.222 90.0877C317.686 90.6637 304.15 91.1437 290.614 91.6237V91.5277C290.614 71.5597 288.982 51.4957 286.006 31.6237C300.694 32.1037 315.478 31.7197 330.166 30.6637C330.454 35.9437 330.55 33.4477 330.454 38.7277C322.39 38.2477 314.23 38.3437 306.166 38.5357C306.454 42.1837 306.55 48.2317 306.742 51.8797C311.542 51.8797 316.342 51.9757 321.142 52.3597C321.238 54.2797 321.334 61.7677 321.43 63.6877C316.438 63.8797 311.542 63.9757 306.55 63.8797ZM52.3928 156.672C56.0408 157.536 59.6888 157.728 63.3368 158.88C65.9288 159.648 68.5208 160.608 70.6328 162.432C72.9368 164.448 74.1848 167.52 75.0488 170.592C77.2568 178.368 77.2568 186.528 77.2568 194.592C70.5368 195.648 63.7208 196.32 57.0008 196.704C57.0968 191.136 57.1928 185.472 56.6168 179.904C56.3288 177.024 55.7528 173.952 53.9288 171.648C52.0088 169.248 48.5528 168 45.9608 169.536C45.7688 176.352 45.5768 183.168 45.3848 189.984C45.3848 191.136 25.9928 191.328 23.4968 191.52C24.3608 168.384 24.2648 145.344 23.4008 122.208C29.1608 121.44 34.4408 121.632 40.2968 121.632C40.1048 128.544 40.3928 135.456 40.9688 142.368C49.7048 142.656 52.8728 137.28 54.5048 129.312C55.3688 124.8 55.7528 120.192 55.7528 115.584C63.9128 116.064 71.9768 116.832 80.1368 117.792C80.6168 125.952 80.9048 135.744 75.3368 142.56C74.1848 144 72.7448 145.152 71.2088 146.304C65.5448 150.72 59.1128 154.272 52.3928 156.672ZM83.2485 132.576C83.4405 132.576 83.7285 132.576 84.2085 132.576C88.1445 132.576 91.9845 132.672 95.9205 132.672C98.8005 132.768 101.873 133.536 104.657 133.44C101.969 152.064 101.873 171.264 103.697 189.984C103.697 190.272 84.4005 190.272 82.8645 190.272C84.3045 171.072 85.5525 151.68 83.2485 132.576ZM82.6725 114.528C82.9605 103.68 96.3045 98.1117 102.929 107.904C105.329 111.456 105.617 116.256 103.601 120C101.585 123.744 97.3605 126.24 93.1365 126.144C88.6245 126.144 84.2085 123.072 83.0565 118.752C82.6725 117.312 82.5765 115.968 82.6725 114.528ZM147.293 157.632C148.061 144.864 148.733 130.08 149.213 118.944C152.765 118.848 156.317 118.752 159.773 118.56C159.869 118.56 160.061 118.56 160.157 118.656C160.157 118.752 160.157 118.944 160.157 119.04C159.581 131.808 159.869 144.672 159.773 157.536C159.677 164.256 159.485 170.976 159.389 177.792C159.293 181.824 159.389 185.952 158.909 189.984C158.909 190.08 158.909 190.944 158.717 191.04C154.973 191.136 149.117 191.328 145.277 191.52C145.085 191.52 144.797 191.52 144.605 191.328C144.413 191.232 144.317 190.944 144.221 190.656C141.533 181.344 138.653 172.032 137.117 162.336C136.637 172.8 135.965 183.36 135.389 193.824C135.389 194.208 135.293 194.784 135.005 195.072C134.813 195.36 134.333 195.456 133.949 195.456C126.653 195.744 119.261 195.264 111.965 194.592C111.965 194.592 111.773 190.944 111.773 190.56C111.005 178.272 110.429 165.984 109.853 153.696C109.469 143.328 108.893 132.96 108.701 122.592C108.605 122.304 108.605 121.92 108.797 121.728C108.989 121.44 109.277 121.344 109.565 121.344C114.077 120.576 118.493 119.808 123.005 119.04C126.461 118.464 129.725 117.6 133.181 116.736C132.797 116.832 138.557 135.552 139.133 137.184C141.533 144.192 144.317 151.008 147.293 157.632ZM167.201 139.008C167.681 135.168 168.257 131.232 170.465 128.064C174.113 122.88 180.065 121.344 185.825 120.096C194.561 118.272 203.489 117.504 212.417 116.832C212.033 116.832 212.417 130.752 212.513 132.48C212.513 132.768 212.513 133.056 212.321 133.248C212.129 133.44 211.841 133.44 211.649 133.44C202.049 134.496 192.353 134.784 182.849 136.128C183.041 141.312 183.617 146.496 183.809 151.68C184.289 160.992 184.769 170.208 185.153 179.52C190.433 180.384 195.809 180.48 201.089 179.808C201.089 177.792 201.089 175.68 201.089 173.664C197.441 173.376 193.889 173.088 190.241 172.608C188.705 172.32 191.489 156 191.489 154.464C191.585 153.696 215.777 155.904 218.561 156.864C217.505 168.384 218.273 180.48 216.641 191.904C216.449 192.672 216.353 193.44 215.777 193.92C215.201 194.496 214.241 194.592 213.377 194.592C201.569 194.88 190.433 194.208 178.721 192.288C173.729 191.232 168.065 189.312 166.337 184.512C165.665 182.88 165.665 181.152 165.569 179.52C165.089 165.984 165.665 152.448 167.201 139.008ZM237.891 169.056C243.363 165.792 246.723 160.8 247.107 155.616C247.395 150.336 242.595 145.152 237.603 141.504C237.699 150.72 237.795 159.84 237.891 169.056ZM244.707 124.032C251.907 127.584 258.243 133.536 261.987 141.408C267.747 153.6 266.403 169.824 258.723 180.384C251.043 191.04 237.891 195.456 226.563 191.04C223.107 167.424 221.859 143.52 221.859 119.616C229.539 119.232 237.603 120.48 244.707 124.032ZM291.635 166.56C292.211 165.984 292.307 165.024 292.307 164.256C292.595 156.672 292.787 149.088 292.787 141.6C291.155 140.736 289.619 140.736 287.891 141.12C287.603 141.12 287.315 141.216 287.123 141.504C286.931 141.696 286.835 142.08 286.835 142.464C286.163 149.952 285.971 157.536 286.163 165.12C286.163 165.504 286.163 165.984 286.355 166.272C286.547 166.56 286.931 166.656 287.219 166.752C288.275 167.04 289.331 167.136 290.483 167.04C290.867 166.944 291.347 166.848 291.635 166.56ZM309.203 137.952C309.779 142.752 310.163 147.648 310.451 152.544C311.027 162.24 311.123 172.032 310.739 181.728C310.739 182.784 310.643 183.84 310.067 184.608C309.299 185.856 307.667 186.048 306.227 186.24C294.899 187.584 283.283 186.72 272.243 183.84C271.091 183.552 269.843 183.168 269.267 182.208C268.787 181.44 268.691 180.576 268.691 179.616C268.307 165.216 267.923 150.624 271.091 136.608C272.531 130.08 276.851 129.888 282.803 128.448C289.331 126.912 296.051 125.952 302.771 125.472C304.307 125.376 306.035 125.376 306.899 126.624C307.763 127.68 307.955 130.272 308.243 131.616C308.723 133.632 309.011 135.744 309.203 137.952ZM372.737 158.4L372.545 158.208C370.913 166.464 369.377 174.72 367.457 182.976C366.689 186.24 365.921 189.6 365.153 192.96C359.681 193.056 354.209 193.152 348.737 193.344C347.297 187.872 342.017 170.976 337.985 163.872C336.929 175.392 335.201 187.104 333.089 198.528C326.561 197.568 319.937 196.992 313.313 196.608C316.577 172.512 319.745 142.176 321.569 115.872C331.073 114.912 340.481 114.816 350.081 115.2C351.713 130.944 353.921 146.976 356.609 162.528C359.585 146.304 362.369 130.08 365.441 113.76C372.545 113.952 379.361 114.816 386.465 115.584C386.561 124.128 389.057 166.656 392.609 194.592C387.809 195.072 383.009 195.648 378.209 196.128C377.825 196.224 377.345 196.224 377.057 196.032C376.769 195.744 376.769 195.36 376.673 194.976C375.425 182.784 374.081 170.592 372.737 158.4Z" fill="url(#paint2_linear_143_213)"/>
</g>
<defs>
<filter id="filter0_d_143_213" x="18.0004" y="17.9985" width="379.009" height="194.429" filterUnits="userSpaceOnUse" color-interpolation-filters="sRGB">
<feFlood flood-opacity="0" result="BackgroundImageFix"/>
<feColorMatrix in="SourceAlpha" type="matrix" values="0 0 0 0 0 0 0 0 0 0 0 0 0 0 0 0 0 0 127 0" result="hardAlpha"/>
<feOffset dy="9"/>
<feGaussianBlur stdDeviation="2.45"/>
<feComposite in2="hardAlpha" operator="out"/>
<feColorMatrix type="matrix" values="0 0 0 0 0.01685 0 0 0 0 0.129808 0 0 0 0 0.119841 0 0 0 0.24 0"/>
<feBlend mode="normal" in2="BackgroundImageFix" result="effect1_dropShadow_143_213"/>
<feBlend mode="normal" in="SourceGraphic" in2="effect1_dropShadow_143_213" result="shape"/>
</filter>
<filter id="filter1_di_143_213" x="0.00039053" y="0" width="415.009" height="230.43" filterUnits="userSpaceOnUse" color-interpolation-filters="sRGB">
<feFlood flood-opacity="0" result="BackgroundImageFix"/>
<feColorMatrix in="SourceAlpha" type="matrix" values="0 0 0 0 0 0 0 0 0 0 0 0 0 0 0 0 0 0 127 0" result="hardAlpha"/>
<feOffset dy="9"/>
<feGaussianBlur stdDeviation="2.45"/>
<feComposite in2="hardAlpha" operator="out"/>
<feColorMatrix type="matrix" values="0 0 0 0 0.01685 0 0 0 0 0.129808 0 0 0 0 0.119841 0 0 0 0.24 0"/>
<feBlend mode="normal" in2="BackgroundImageFix" result="effect1_dropShadow_143_213"/>
<feBlend mode="normal" in="SourceGraphic" in2="effect1_dropShadow_143_213" result="shape"/>
<feColorMatrix in="SourceAlpha" type="matrix" values="0 0 0 0 0 0 0 0 0 0 0 0 0 0 0 0 0 0 127 0" result="hardAlpha"/>
<feOffset dy="4"/>
<feGaussianBlur stdDeviation="8.95"/>
<feComposite in2="hardAlpha" operator="arithmetic" k2="-1" k3="1"/>
<feColorMatrix type="matrix" values="0 0 0 0 0.913043 0 0 0 0 1 0 0 0 0 0.884615 0 0 0 0.34 0"/>
<feBlend mode="normal" in2="shape" result="effect2_innerShadow_143_213"/>
</filter>
<filter id="filter2_di_143_213" x="23.4004" y="17.7036" width="369.209" height="184.824" filterUnits="userSpaceOnUse" color-interpolation-filters="sRGB">
<feFlood flood-opacity="0" result="BackgroundImageFix"/>
<feColorMatrix in="SourceAlpha" type="matrix" values="0 0 0 0 0 0 0 0 0 0 0 0 0 0 0 0 0 0 127 0" result="hardAlpha"/>
<feOffset dy="4"/>
<feComposite in2="hardAlpha" operator="out"/>
<feColorMatrix type="matrix" values="0 0 0 0 0.0216346 0 0 0 0 0.1875 0 0 0 0 0.173678 0 0 0 1 0"/>
<feBlend mode="normal" in2="BackgroundImageFix" result="effect1_dropShadow_143_213"/>
<feBlend mode="normal" in="SourceGraphic" in2="effect1_dropShadow_143_213" result="shape"/>
<feColorMatrix in="SourceAlpha" type="matrix" values="0 0 0 0 0 0 0 0 0 0 0 0 0 0 0 0 0 0 127 0" result="hardAlpha"/>
<feOffset dy="4"/>
<feGaussianBlur stdDeviation="2"/>
<feComposite in2="hardAlpha" operator="arithmetic" k2="-1" k3="1"/>
<feColorMatrix type="matrix" values="0 0 0 0 1 0 0 0 0 1 0 0 0 0 1 0 0 0 0.25 0"/>
<feBlend mode="normal" in2="shape" result="effect2_innerShadow_143_213"/>
</filter>
<linearGradient id="paint0_linear_143_213" x1="206.426" y1="19.2717" x2="206.426" y2="209.272" gradientUnits="userSpaceOnUse">
<stop stop-color="#F7D446"/>
<stop offset="1" stop-color="#F5A83D"/>
</linearGradient>
<linearGradient id="paint1_linear_143_213" x1="206.426" y1="19.2719" x2="206.426" y2="235.272" gradientUnits="userSpaceOnUse">
<stop stop-color="#528641"/>
<stop offset="1" stop-color="#042421"/>
</linearGradient>
<linearGradient id="paint2_linear_143_213" x1="206.926" y1="50.2717" x2="206.926" y2="181.772" gradientUnits="userSpaceOnUse">
<stop stop-color="#F7D446"/>
<stop offset="1" stop-color="#FDA427"/>
</linearGradient>
</defs>
</svg>
