<svg width="106" height="57" viewBox="0 0 106 57" fill="none" xmlns="http://www.w3.org/2000/svg">
<path fill-rule="evenodd" clip-rule="evenodd" d="M45.4232 0.412909C47.9119 -0.00182904 50.3972 -0.0868857 52.8402 0.0808781C52.9583 0.0875271 53.1066 0.0913695 53.2807 0.0965031C54.7025 0.138428 57.8544 0.231245 60.4438 2.03303C60.4502 2.03743 60.4569 2.04222 60.4633 2.0467L60.474 2.05451C60.476 2.05586 60.4779 2.05711 60.4799 2.05842C60.4821 2.05988 60.4846 2.06178 60.4867 2.0633C61.0918 2.48495 61.6137 2.95658 62.059 3.46467C62.2449 3.37392 62.4389 3.29442 62.64 3.22736C63.1073 3.07162 63.5475 2.99304 63.9584 2.9715C66.2412 2.72107 68.9226 2.90391 70.6518 3.02228L71.3754 3.07014L71.4926 3.07892C72.1084 3.13214 72.6885 3.30238 73.2113 3.56721C73.283 3.56427 73.3551 3.56295 73.4272 3.5633L73.558 3.56623L74.2445 3.58576C77.6794 3.67286 81.1501 3.57438 84.6186 3.32502C85.8781 3.23446 87.1212 3.65333 88.0688 4.4881C89.0163 5.32295 89.5888 6.50354 89.6576 7.76447C89.6814 8.2 89.6914 8.30572 89.7025 8.42463C89.7096 8.49937 89.7171 8.5806 89.7289 8.75178C89.7583 9.17761 89.7507 9.58485 89.7397 10.1942V10.2156C89.7163 11.498 89.1703 12.7157 88.2289 13.5867C87.9517 13.8432 87.647 14.0633 87.3227 14.244C87.3288 14.5038 87.3341 14.7821 87.3393 15.034C88.0216 15.322 88.6348 15.7699 89.1205 16.3504C89.9803 17.3781 90.3612 18.7237 90.1684 20.0496C90.0082 21.151 89.9408 22.3228 89.9408 23.5662L89.9398 23.6834C89.9249 24.2913 89.7939 24.8723 89.5688 25.4031C89.6637 25.406 89.759 25.4087 89.8539 25.4119L90.3539 25.4305C90.8519 25.4504 91.3312 25.5477 91.7787 25.7108C92.4931 25.2858 93.3253 25.0458 94.2035 25.0496L94.3109 25.0516C95.887 25.0942 97.428 25.2496 98.8334 25.4041L100.19 25.5545C102.56 25.8108 104.365 27.7983 104.392 30.1824C104.414 32.1597 105.015 42.4928 105.878 49.6297L105.962 50.3094L105.976 50.4276C106.1 51.649 105.742 52.8727 104.975 53.8358C104.184 54.8299 103.024 55.4622 101.759 55.5887C101.169 55.6478 100.574 55.7128 99.9535 55.7811L99.9223 55.785C99.3518 55.8477 98.7586 55.9117 98.1606 55.9725C97.8271 56.0218 97.4662 56.0436 97.0873 56.0213C96.5829 55.9916 95.6565 55.8635 94.7035 55.2586L94.6107 55.1981C94.6033 55.1931 94.5957 55.1885 94.5883 55.1834L94.5785 55.1756L94.5746 55.1737L94.56 55.1629C94.4382 55.1746 94.3148 55.1822 94.1908 55.1844H94.1811C92.7472 55.2096 91.3592 55.2346 89.9799 55.283C89.6757 55.2937 89.3753 55.2741 89.0834 55.2283C88.0896 56.2408 86.6554 56.7901 85.1537 56.6072L85.0356 56.5916C83.5085 56.3671 81.9219 56.2271 80.2748 56.1317C78.9656 56.0556 77.7474 55.4368 76.9135 54.4246C76.6983 54.1634 76.5141 53.8817 76.3617 53.5858C73.7442 53.6248 71.1286 53.3028 68.6156 52.6473C68.4581 52.6076 68.1471 52.5262 67.7797 52.3856C64.9327 54.6993 61.1476 55.7311 57.4506 54.7821C56.8191 55.1772 56.2139 55.3673 55.7963 55.4627C55.2621 55.5848 54.7946 55.6062 54.5199 55.6102C51.3741 55.6869 48.3581 55.5238 45.2094 55.0467L44.5775 54.9471C44.542 54.9413 44.5065 54.9352 44.4711 54.9285L44.3647 54.9071C43.7756 54.7824 42.964 54.585 42.1068 54.2371C41.5181 54.5134 40.8779 54.6648 40.227 54.6815C39.2647 54.7061 37.7755 54.7551 36.8256 54.8026C36.8064 54.8035 36.7872 54.8039 36.768 54.8045L36.7514 54.8055H36.7465L36.7299 54.8065C36.116 55.275 35.52 55.4979 35.1889 55.6014C34.6369 55.7739 34.1372 55.8275 33.7572 55.8367C31.8349 55.9092 29.9455 55.8055 28.1938 55.658L27.4447 55.5926C26.4274 55.4989 25.5074 55.0848 24.7836 54.4539C24.0961 53.8546 23.5851 53.0593 23.3363 52.1561C23.0849 53.068 22.5655 53.8749 21.8607 54.4793C21.2165 55.0318 20.4175 55.4157 19.5277 55.5555C17.593 55.8595 15.6535 56.0492 13.767 56.1571C12.4597 56.2317 11.18 55.7586 10.2357 54.8514C10.145 54.7642 10.0579 54.6733 9.97501 54.5799C9.37824 54.634 8.67571 54.6714 8.03848 54.6981C7.32924 54.7278 6.60504 54.7481 6.04043 54.7645C5.7519 54.7729 5.51328 54.7806 5.32559 54.7869C5.20069 54.7911 5.13114 54.7934 5.10098 54.7947C5.08833 54.7953 5.08243 54.7957 5.08243 54.7957L5.08536 54.7947C4.95851 54.8042 4.83167 54.8092 4.70547 54.8084H4.66055C4.41758 54.8046 4.17611 54.7817 3.93887 54.741C3.89215 54.733 3.84563 54.7241 3.79922 54.7147C3.75289 54.7053 3.70654 54.6952 3.66055 54.6844C3.56841 54.6628 3.47671 54.6382 3.38614 54.6112C3.20483 54.557 3.02645 54.4924 2.85294 54.4168C2.34648 54.1961 1.87707 53.8852 1.47012 53.494C0.50283 52.5638 -0.0213634 51.2647 0.0287163 49.9237C0.249861 44.0015 0.22545 38.0926 0.00332566 32.1444C-0.0872061 29.719 1.68059 27.6214 4.08633 27.3006C5.51545 27.1101 6.89537 27.0978 8.05215 27.1033L9.12833 27.1092C9.29575 27.1092 9.46243 27.118 9.62735 27.1356C9.72626 27.0225 9.83152 26.9134 9.9418 26.8094C10.8852 25.9201 12.1534 25.459 13.4477 25.535C14.443 25.5935 15.4305 25.667 16.4125 25.7537C15.8439 19.0521 15.6608 12.4988 16.0385 5.701L16.0463 5.58381C16.2417 3.14482 18.2798 1.25288 20.7397 1.25275C22.7822 1.25275 24.8402 1.24091 26.9145 1.22834H26.9652C29.0177 1.2159 31.0872 1.20295 33.1459 1.20295C34.901 1.20302 36.4458 2.16703 37.2553 3.61115C38.1831 3.59428 39.1992 3.55778 40.1723 3.51252C40.7557 3.48538 41.3028 3.45548 41.7777 3.42853C42.3451 1.8935 43.6983 0.700431 45.4232 0.412909ZM94.184 29.7586C93.3804 34.0277 92.6519 38.2724 91.8734 42.5164C91.1703 38.4483 90.5923 34.2539 90.1654 30.1356C87.6543 30.0351 85.1934 30.0603 82.7074 30.3113C82.2303 37.1921 81.4011 45.1282 80.5473 51.4315C82.28 51.5319 84.0134 51.6823 85.7211 51.9334C86.2735 48.9452 86.7251 45.8813 87.0014 42.868C88.056 44.7263 89.437 49.1451 89.8139 50.577C91.2453 50.5267 92.6774 50.5015 94.1088 50.4764C94.3096 49.5977 94.5105 48.7187 94.7113 47.8651C95.2136 45.7054 95.6155 43.5452 96.0424 41.3856L96.0922 41.4363C96.4437 44.6254 96.796 47.8147 97.1225 51.0037C97.1475 51.104 97.1472 51.2048 97.2221 51.2801C97.2974 51.3303 97.4234 51.3306 97.5238 51.3055C98.7793 51.1799 100.035 51.0297 101.29 50.9041C100.361 43.5967 99.7092 32.4722 99.684 30.2362C97.8257 30.0353 96.0423 29.8089 94.184 29.7586ZM13.1713 30.2362C13.1713 31.4413 13.0701 32.6469 12.8441 33.827C12.4172 35.9112 11.5883 37.3173 9.30313 37.242C9.15249 35.4342 9.07715 33.626 9.12735 31.8182C7.59583 31.8182 6.21481 31.7678 4.7084 31.9686C4.93441 38.0207 4.95882 44.0483 4.73282 50.1004C5.38616 50.0502 10.4584 49.9994 10.4584 49.6981C10.5086 47.9153 10.5596 46.1322 10.6098 44.3494C11.2876 43.948 12.1915 44.2737 12.6938 44.9012C13.1708 45.5038 13.3215 46.308 13.3969 47.0613C13.5475 48.5177 13.5226 49.9995 13.4975 51.4559C15.2553 51.3554 17.0384 51.1804 18.7963 50.9041C18.7963 48.7949 18.7966 46.6597 18.2191 44.6258C17.9932 43.8224 17.6663 43.0184 17.0639 42.491C16.5114 42.0139 15.8327 41.7622 15.1547 41.5613C14.2006 41.2601 13.2465 41.2101 12.2924 40.9842C14.0501 40.3564 15.7328 39.4273 17.2143 38.2723C17.616 37.971 17.993 37.6694 18.2943 37.2928C19.7507 35.5098 19.6748 32.9478 19.5492 30.8133C17.4149 30.5622 15.3056 30.3617 13.1713 30.2362ZM33.4262 30.5369C32.5222 30.7629 31.668 30.9888 30.7641 31.1395C29.5839 31.3404 28.4286 31.5421 27.2484 31.743C27.1732 31.743 27.0975 31.7675 27.0473 31.8426C26.9971 31.8928 26.9978 31.9938 27.0229 32.0692C27.0731 34.7812 27.2232 37.4938 27.3236 40.2059C27.4743 43.4202 27.6257 46.6351 27.8266 49.8494C27.8267 49.9514 27.8755 50.887 27.8764 50.9041C29.7849 51.0799 31.7188 51.205 33.6273 51.1297C33.7278 51.1297 33.8535 51.1044 33.9037 51.0291C33.9788 50.9537 34.0043 50.8033 34.0043 50.7029C34.155 47.9657 34.3309 45.2029 34.4565 42.4656C34.8582 45.0019 35.6108 47.4381 36.3139 49.8738C36.3389 49.949 36.3645 50.0243 36.4145 50.0496C36.4646 50.0997 36.54 50.1004 36.5902 50.1004C37.5948 50.0502 39.1275 49.9995 40.1068 49.9744C40.1565 49.948 40.1566 49.7231 40.1566 49.6981C40.2822 48.6435 40.2575 47.5632 40.2826 46.5086C40.3077 44.7258 40.3571 42.9675 40.3822 41.2098C40.4073 37.8448 40.3321 34.4793 40.4828 31.1395V31.0389C40.4576 31.0143 40.4072 31.0145 40.3822 31.0145C39.4784 31.0647 38.5494 31.09 37.6205 31.1151C37.495 34.028 37.3185 37.8953 37.1176 41.2352C36.3392 39.5026 35.6115 37.7195 34.9838 35.8865C34.8328 35.4585 33.3272 30.5662 33.4262 30.5369ZM54.1537 30.5623C51.8183 30.7381 49.4828 30.9387 47.1977 31.4158C45.691 31.7423 44.1334 32.1449 43.1791 33.5008C42.6018 34.3293 42.4511 35.3589 42.3256 36.3631C41.9238 39.8788 41.7733 43.42 41.8988 46.9608C41.9239 47.3876 41.9244 47.8396 42.1 48.2664C42.552 49.5221 44.0334 50.0244 45.3393 50.3006C48.4029 50.8028 51.3159 50.9794 54.4047 50.9041C54.6305 50.9041 54.8819 50.8787 55.0326 50.7283C55.1831 50.6028 55.209 50.4017 55.2592 50.201C55.6861 47.2126 55.4849 44.0475 55.7611 41.034C55.0336 40.7831 48.7176 40.207 48.6791 40.4061C48.6791 40.8079 47.9511 45.0778 48.3529 45.1531C49.3071 45.2787 50.2366 45.3542 51.1908 45.4295V47.036C49.8097 47.2117 48.403 47.1868 47.0219 46.9608C46.9214 44.5251 46.7959 42.1142 46.6703 39.6785C46.6201 38.3226 46.4696 36.9661 46.4193 35.6102C48.9053 35.2587 51.4415 35.1832 53.9525 34.9071C54.0028 34.9071 54.0781 34.9064 54.1283 34.8563C54.1783 34.8061 54.1791 34.7312 54.1791 34.6561C54.154 34.2031 54.0534 30.5644 54.1537 30.5623ZM62.6 32.4461C60.7417 31.517 58.6324 31.1904 56.6234 31.2908C56.6235 37.5437 56.9499 43.7969 57.8539 49.9744C60.8172 51.1296 64.2579 49.9747 66.267 47.1873C68.2759 44.4249 68.6273 40.1803 67.1205 36.991C66.1411 34.9319 64.4834 33.3752 62.6 32.4461ZM20.3637 34.6805C20.9664 39.6778 20.6407 44.7509 20.2641 49.7733C20.6692 49.7733 25.7133 49.7734 25.7133 49.6981C25.2362 44.8013 25.2612 39.7787 25.9643 34.9071C25.2361 34.9321 24.4324 34.731 23.6791 34.7059C22.6496 34.7059 21.6451 34.6805 20.6156 34.6805H20.3637ZM77.7895 32.8221C76.0316 32.9477 74.2734 33.1986 72.5658 33.6004C71.0091 33.977 69.8791 34.0281 69.5023 35.7352C68.6736 39.4016 68.774 43.2193 68.8744 46.9862C68.8744 47.237 68.8995 47.4631 69.0248 47.6639C69.1755 47.915 69.5028 48.0153 69.8041 48.0906C72.692 48.844 75.7305 49.0701 78.6938 48.7186C79.0704 48.6684 79.4978 48.6182 79.6986 48.2918C79.8489 48.091 79.8744 47.8148 79.8744 47.5389C79.9749 45.0026 79.9489 42.4404 79.7982 39.9041C79.7229 38.6235 79.6227 37.3423 79.4721 36.0867C79.4219 35.5093 79.3466 34.9567 79.2211 34.4295C79.1458 34.0779 79.0954 33.4001 78.8695 33.1238C78.6435 32.7975 78.1912 32.797 77.7895 32.8221ZM60.7416 37.0164C62.0474 37.9707 63.3031 39.3267 63.2279 40.7078C63.1275 42.0637 62.2489 43.3696 60.8178 44.2235C60.7927 41.8128 60.7667 39.4271 60.7416 37.0164ZM73.8969 36.9158C74.3488 36.8154 74.7513 36.8149 75.1781 37.0408C75.1781 38.9994 75.1275 40.9839 75.0522 42.9676C75.0522 43.1684 75.0269 43.4204 74.8764 43.5711C74.8011 43.6461 74.6758 43.6711 74.5756 43.6961C74.2742 43.7212 73.9973 43.6963 73.7211 43.6209C73.6458 43.5958 73.5457 43.5702 73.4955 43.4949C73.4455 43.4196 73.4447 43.2944 73.4447 43.1942C73.3945 41.2104 73.4447 39.2261 73.6205 37.2674C73.6206 37.1673 73.6458 37.0667 73.6957 37.0164C73.7459 36.9413 73.8217 36.9159 73.8969 36.9158ZM25.5121 28.2264C23.7793 25.6655 20.2888 27.1223 20.2133 29.9598C20.1882 30.3362 20.2135 30.6878 20.3139 31.0643C20.6152 32.1943 21.7703 32.9978 22.9506 32.9979C24.0555 33.023 25.1605 32.3698 25.6879 31.3904C26.215 30.4111 26.1398 29.1554 25.5121 28.2264ZM52.5746 4.78205C50.4403 4.63141 48.3059 4.70691 46.1967 5.05842C47.2012 12.0395 47.9796 18.5442 48.1303 27.2078C48.1359 27.4081 53.756 27.0823 54.4086 27.032C56.4677 26.9065 58.6274 26.6298 60.3852 25.6756C62.3438 24.5957 63.6495 22.6367 63.6244 20.6278C63.5992 19.4728 63.1725 18.5436 62.4945 17.7401C61.3142 16.3589 59.4307 15.3795 57.7231 14.4754C57.6979 14.4503 57.6476 14.4253 57.6225 14.4002C57.5976 14.35 57.6482 14.2746 57.6732 14.2244C58.4517 13.0693 59.1548 11.8632 59.4311 10.5574C59.7824 8.875 59.3046 6.96657 57.7729 5.91193C56.241 4.83231 54.3575 4.88249 52.5746 4.78205ZM33.1459 5.91193C29.0274 5.91193 24.8581 5.96174 20.7397 5.96174C20.363 12.742 20.5637 19.2967 21.1664 26.077C23.075 26.0267 24.9087 25.6 26.767 25.1229C26.6414 22.5113 26.5156 19.6736 26.39 17.0369C28.4744 16.9616 30.1319 16.8358 32.2162 16.66C32.1158 14.9023 32.0905 13.1696 32.1156 11.4119L32.015 11.3113C30.0313 11.462 28.0223 11.5368 26.0385 11.4363C26.0384 10.7586 25.9381 10.1056 25.7875 9.45295C28.1479 9.40271 30.8851 9.10124 33.2455 8.82502C33.2957 7.89598 33.2212 6.84097 33.1459 5.91193ZM71.0844 7.77033C69.0503 7.64476 66.2377 7.39382 64.1283 7.69514C64.2042 7.67961 64.7809 16.5895 64.3793 24.5711C67.0915 24.4958 70.3061 24.0689 73.5707 24.2195C73.5707 23.2656 73.6457 23.2647 73.5453 22.2606C72.6665 22.4614 71.6367 22.4863 70.7328 22.411C70.9337 17.2881 71.0342 12.9183 71.0844 7.77033ZM43.7934 8.02131C43.7755 8.02257 37.7372 8.44808 34.7279 8.29768C34.5521 11.8385 33.2205 18.7943 31.7641 23.1639C32.1405 23.2643 36.8291 23.9669 36.8627 23.868C36.8878 22.9642 36.9121 22.0345 36.9623 21.1307C38.5819 21.0061 41.0671 21.0787 41.1059 21.0799C41.1059 21.0799 41.3074 23.7134 41.3578 23.9676C42.2366 23.8923 43.1656 23.7923 44.0443 23.6668C44.3211 23.6165 46.4299 23.0885 46.3295 22.8123C44.9484 19.3464 43.8687 11.1351 43.7934 8.02131ZM84.9555 8.02131C81.1133 8.29753 77.2458 8.39784 73.4037 8.27228C74.1822 13.4706 74.6098 18.7198 74.6098 23.9432V23.9676C78.1504 23.842 81.6912 23.7169 85.2318 23.5662C85.2318 22.16 85.3073 20.753 85.5082 19.3719C83.2231 19.2966 81.2142 19.1963 78.9291 19.1209C78.8287 18.4179 78.6774 17.4388 78.7777 16.7108C80.0835 16.7359 81.3646 16.7102 82.6703 16.66C82.6452 16.1572 82.6202 14.1997 82.5951 13.6971C81.3396 13.5967 80.084 13.5711 78.8285 13.5711C78.7783 12.6169 78.7534 11.0351 78.6781 10.0809C80.7874 10.0307 82.9223 10.0051 85.0316 10.1307C85.0567 8.7499 85.0308 9.40239 84.9555 8.02131ZM53.3539 18.0164C54.7349 18.3177 56.2411 18.6697 57.0697 19.4481C58.1746 20.4525 57.7734 21.9843 56.3422 22.7879C55.6893 23.1395 54.8603 23.3655 54.0316 23.491C53.4039 21.7332 53.2033 19.8495 53.3539 18.0164ZM39.8002 11.8885C39.9509 14.2238 40.1014 16.5344 40.4027 18.8445C39.4235 18.7944 38.4438 18.8454 37.4897 18.9207C37.6152 17.5645 37.9923 14.6757 38.6703 12.1395C39.0469 12.0892 39.3985 11.9387 39.8002 11.8885ZM52.3236 7.66975C54.3827 8.27241 55.5631 9.35267 55.5131 10.4324C55.4375 11.2611 54.5081 12.1647 52.6752 12.4158C52.2484 10.9092 52.173 9.20147 52.3236 7.66975Z" fill="white"/>
</svg>
